<svg id="logo" xmlns="http://www.w3.org/2000/svg" viewBox="0 0 207.92 43.33"><defs><style>.cls-1{fill:#ffffff;}.cls-2{fill:#ffffff;}</style></defs><g id="AC-Repair."><path class="cls-1" d="M74.15,33.7l-.9-2.94q-.06-.12-.15-.12H65.72q-.09,0-.15.12L64.7,33.7a.38.38,0,0,1-.39.3H60.5a.34.34,0,0,1-.27-.11.31.31,0,0,1,0-.31L66.68,13.3a.38.38,0,0,1,.39-.3h4.71a.38.38,0,0,1,.39.3l6.48,20.28a.33.33,0,0,1,0,.15q0,.27-.33.27H74.54A.38.38,0,0,1,74.15,33.7Zm-7.38-6.33h5.28q.18,0,.12-.18l-2.7-8.91c0-.08,0-.11-.09-.11a.17.17,0,0,0-.09.11l-2.64,8.91Q66.62,27.37,66.77,27.37Z" transform="translate(-0.9 -1.67)"/><path class="cls-1" d="M83.36,33.33a6.65,6.65,0,0,1-2.73-2.57,7.44,7.44,0,0,1-1-3.81V20a7.44,7.44,0,0,1,1-3.81,6.47,6.47,0,0,1,2.73-2.55,9.92,9.92,0,0,1,8.17,0A6.5,6.5,0,0,1,94.26,16a6.83,6.83,0,0,1,1,3.65q0,.27-.36.33l-3.51.21h-.06q-.3,0-.3-.33a3.42,3.42,0,0,0-1-2.55,3.49,3.49,0,0,0-2.56-1,3.55,3.55,0,0,0-2.6,1,3.41,3.41,0,0,0-1,2.55v7.23a3.38,3.38,0,0,0,1,2.52,3.55,3.55,0,0,0,2.6,1,3.49,3.49,0,0,0,2.56-1,3.38,3.38,0,0,0,1-2.52q0-.33.36-.33l3.51.15a.37.37,0,0,1,.25.09.28.28,0,0,1,.11.21,6.86,6.86,0,0,1-1,3.66,6.52,6.52,0,0,1-2.73,2.46,9,9,0,0,1-4.06.87A8.83,8.83,0,0,1,83.36,33.33Z" transform="translate(-0.9 -1.67)"/><path class="cls-1" d="M96.84,26.84a.32.32,0,0,1-.1-.25V23.68a.37.37,0,0,1,.1-.26.4.4,0,0,1,.26-.1h9.81a.37.37,0,0,1,.25.1.38.38,0,0,1,.11.26v2.91a.33.33,0,0,1-.11.25.31.31,0,0,1-.25.11H97.1A.33.33,0,0,1,96.84,26.84Z" transform="translate(-0.9 -1.67)"/><path class="cls-1" d="M120.47,33.73l-3.75-8.31a.2.2,0,0,0-.18-.12h-2.79a.13.13,0,0,0-.15.15v8.19a.33.33,0,0,1-.11.25.36.36,0,0,1-.25.11h-3.51a.35.35,0,0,1-.26-.11.32.32,0,0,1-.1-.25V13.36a.37.37,0,0,1,.1-.26.38.38,0,0,1,.26-.1h8.58a7,7,0,0,1,3.37.78A5.47,5.47,0,0,1,123.93,16a6.78,6.78,0,0,1,.8,3.33,6,6,0,0,1-1,3.5,5.48,5.48,0,0,1-2.85,2.05.14.14,0,0,0-.09.21l4.08,8.49a.46.46,0,0,1,.06.18q0,.24-.33.24h-3.69A.42.42,0,0,1,120.47,33.73ZM113.6,16.78v5.13a.13.13,0,0,0,.15.15h3.93a2.86,2.86,0,0,0,2-.75,2.79,2.79,0,0,0,0-3.91,2.79,2.79,0,0,0-2-.77h-3.93A.13.13,0,0,0,113.6,16.78Z" transform="translate(-0.9 -1.67)"/><path class="cls-1" d="M141.66,16.52a.31.31,0,0,1-.25.11h-9.84c-.11,0-.15.05-.15.15v4.65c0,.1,0,.15.15.15H138a.38.38,0,0,1,.36.36v2.91a.36.36,0,0,1-.11.26.33.33,0,0,1-.25.1h-6.45c-.11,0-.15.05-.15.15v4.86c0,.1,0,.15.15.15h9.84a.37.37,0,0,1,.25.1.36.36,0,0,1,.11.26v2.91a.33.33,0,0,1-.11.25.34.34,0,0,1-.25.11H127.55a.36.36,0,0,1-.26-.11.32.32,0,0,1-.1-.25V13.36a.37.37,0,0,1,.1-.26.4.4,0,0,1,.26-.1h13.86a.37.37,0,0,1,.25.1.38.38,0,0,1,.11.26v2.91A.33.33,0,0,1,141.66,16.52Z" transform="translate(-0.9 -1.67)"/><path class="cls-1" d="M156.26,13.78a5.65,5.65,0,0,1,2.32,2.3,6.85,6.85,0,0,1,.83,3.4,6.4,6.4,0,0,1-.86,3.33,5.75,5.75,0,0,1-2.4,2.23,7.52,7.52,0,0,1-3.55.8h-4.26a.13.13,0,0,0-.15.15v7.65a.33.33,0,0,1-.11.25.34.34,0,0,1-.25.11h-3.51a.35.35,0,0,1-.26-.11.32.32,0,0,1-.1-.25V13.33a.33.33,0,0,1,.1-.25.35.35,0,0,1,.26-.11h8.46A7.24,7.24,0,0,1,156.26,13.78Zm-1.89,7.87a2.75,2.75,0,0,0,.84-2.08,2.86,2.86,0,0,0-.84-2.13,3.06,3.06,0,0,0-2.22-.81h-3.81a.13.13,0,0,0-.15.15V22.3a.13.13,0,0,0,.15.15h3.81A3.06,3.06,0,0,0,154.37,21.65Z" transform="translate(-0.9 -1.67)"/><path class="cls-1" d="M172.7,33.7l-.91-2.94c0-.08-.08-.12-.14-.12h-7.39s-.1,0-.14.12l-.87,2.94a.38.38,0,0,1-.39.3H159a.3.3,0,0,1-.26-.11c-.07-.06-.07-.17,0-.31l6.47-20.28a.39.39,0,0,1,.4-.3h4.71a.37.37,0,0,1,.38.3l6.49,20.28a.61.61,0,0,1,0,.15c0,.18-.1.27-.32.27h-3.82A.36.36,0,0,1,172.7,33.7Zm-7.38-6.33h5.27q.18,0,.12-.18L168,18.28c0-.08,0-.11-.09-.11a.17.17,0,0,0-.09.11l-2.63,8.91Q165.15,27.37,165.32,27.37Z" transform="translate(-0.9 -1.67)"/><path class="cls-1" d="M179.37,33.89a.33.33,0,0,1-.11-.25V13.36a.38.38,0,0,1,.11-.26.37.37,0,0,1,.25-.1h3.51a.4.4,0,0,1,.26.1.38.38,0,0,1,.11.26V33.64a.33.33,0,0,1-.11.25.36.36,0,0,1-.26.11h-3.51A.34.34,0,0,1,179.37,33.89Z" transform="translate(-0.9 -1.67)"/><path class="cls-1" d="M197.65,33.73l-3.75-8.31a.19.19,0,0,0-.18-.12h-2.79a.13.13,0,0,0-.15.15v8.19a.32.32,0,0,1-.1.25.36.36,0,0,1-.26.11h-3.51a.34.34,0,0,1-.25-.11.33.33,0,0,1-.11-.25V13.36a.38.38,0,0,1,.11-.26.37.37,0,0,1,.25-.1h8.58a7.06,7.06,0,0,1,3.38.78A5.47,5.47,0,0,1,201.12,16a6.78,6.78,0,0,1,.79,3.33,6,6,0,0,1-1,3.5A5.48,5.48,0,0,1,198,24.88a.14.14,0,0,0-.09.21L202,33.58a.46.46,0,0,1,.06.18q0,.24-.33.24h-3.69A.42.42,0,0,1,197.65,33.73Zm-6.87-16.95v5.13a.13.13,0,0,0,.15.15h3.93a2.89,2.89,0,0,0,2.06-.75,2.55,2.55,0,0,0,.79-1.95,2.58,2.58,0,0,0-.79-2,2.81,2.81,0,0,0-2.06-.77h-3.93A.13.13,0,0,0,190.78,16.78Z" transform="translate(-0.9 -1.67)"/><path class="cls-1" d="M204.75,33.45a2.37,2.37,0,1,1,3.39,0,2.48,2.48,0,0,1-3.39,0Z" transform="translate(-0.9 -1.67)"/><path class="cls-2" d="M50.33,26.3H47.57L47,21.14l2.74-.67c.19,1.34.37,2.65.55,4l.09.88Z" transform="translate(-0.9 -1.67)"/><path class="cls-2" d="M21.75,8V5.68h7.69V8A18.52,18.52,0,0,1,42.38,18a18.09,18.09,0,0,1,1.53,12.08,18.69,18.69,0,0,1-36.64-.19A18.22,18.22,0,0,1,10,16,18.51,18.51,0,0,1,21.75,8Zm0,9.19V11A15.84,15.84,0,1,0,41.42,25.24,15.6,15.6,0,0,0,29.44,11v6.17Zm4.81-2.84V8.52H24.66v5.8Z" transform="translate(-0.9 -1.67)"/><path class="cls-2" d="M3.64,26.24H.9a25,25,0,0,1,.76-6l2.65.67Z" transform="translate(-0.9 -1.67)"/><path class="cls-2" d="M40.59,10.23,36.21,7.06l1.31-2.39a23.17,23.17,0,0,1,4.94,3.57Z" transform="translate(-0.9 -1.67)"/><path class="cls-2" d="M10.8,10.06,9,8.1a20.26,20.26,0,0,1,4.93-3.55L15.2,7Z" transform="translate(-0.9 -1.67)"/><path class="cls-2" d="M6.14,11.09l2.14,1.69L5.52,17.41,3,16.31A23.21,23.21,0,0,1,6.14,11.09Z" transform="translate(-0.9 -1.67)"/><path class="cls-2" d="M45.79,17.62,43.07,13l2.15-1.66a23.06,23.06,0,0,1,3.08,5.24Z" transform="translate(-0.9 -1.67)"/><path class="cls-2" d="M27.57,4.41l.24-2.71A22.82,22.82,0,0,1,33.75,3l-.91,2.58Z" transform="translate(-0.9 -1.67)"/><path class="cls-2" d="M23.66,1.67l.2,2.72L18.59,5.46,17.7,2.89A23.3,23.3,0,0,1,23.66,1.67Z" transform="translate(-0.9 -1.67)"/><path class="cls-2" d="M21.37,30.41c-.74,0-1.39,0-2.05,0-.12,0-.24-.15-.35-.24s0-.06,0-.09c-.15-.41-.23-1.11-.48-1.18a7,7,0,0,0-2-.06c-.09,0-.2.19-.25.31-.16.41-.18,1-.47,1.2s-.86.07-1.3.07h-1c.26-.71.5-1.33.73-2,.73-1.94,1.45-3.89,2.16-5.83a.52.52,0,0,1,.56-.41c1.4,0,1.4,0,1.87,1.28q1.2,3.21,2.39,6.42Zm-3.89-5.73h-.1l-.72,2.63h1.52Z" transform="translate(-0.9 -1.67)"/><path class="cls-2" d="M37.59,24l-1.47,1a6.75,6.75,0,0,0-1.37-.79,1.31,1.31,0,0,0-1.58.69,2.76,2.76,0,0,0,0,2.83,1.48,1.48,0,0,0,2.6.05l.15-.24,1.73,1a3.53,3.53,0,0,1-3.86,1.82,4.25,4.25,0,0,1-3.25-4.08,4.13,4.13,0,0,1,3-4A3.47,3.47,0,0,1,37.59,24Z" transform="translate(-0.9 -1.67)"/><path class="cls-2" d="M30.21,22.24l-1.7,2.32c-1.32,1.82-2.66,3.64-4,5.48a.8.8,0,0,1-.78.38c-.58,0-1.17,0-1.83,0a3.94,3.94,0,0,1,.22-.35q2.72-3.75,5.42-7.49a.73.73,0,0,1,.69-.35C28.87,22.26,29.47,22.24,30.21,22.24Z" transform="translate(-0.9 -1.67)"/></g></svg>